<?xml version="1.0" encoding="utf-8"?>
<!-- Generator: Adobe Illustrator 24.1.3, SVG Export Plug-In . SVG Version: 6.00 Build 0)  -->
<svg version="1.1" id="Capa_1" xmlns="http://www.w3.org/2000/svg" xmlns:xlink="http://www.w3.org/1999/xlink" x="0px" y="0px"
	 viewBox="0 0 1150 512" style="enable-background:new 0 0 1150 512;" xml:space="preserve">
<style type="text/css">
	.st0{fill:url(#Caminho_2569_1_);}
	.st1{fill:none;stroke:#FFFFFF;stroke-width:3;stroke-miterlimit:10;}
	.st2{fill:url(#Caminho_2571_1_);}
	.st3{fill:url(#Retângulo_154_1_);}
	.st4{fill:url(#Retângulo_155_1_);}
	.st5{fill:#8403B2;}
	.st6{font-family:'Heisenberg-Regular';}
	.st7{font-size:48px;}
	.st8{fill:#7D46DF;}
	.st9{font-family:'ParmaInitialenMK';}
	.st10{font-size:53px;}
</style>
<linearGradient id="Caminho_2569_1_" gradientUnits="userSpaceOnUse" x1="1240.198" y1="-188.8364" x2="1240.199" y2="-187.4534" gradientTransform="matrix(73.9 0 0 72.7039 -91304.375 13932.0205)">
	<stop  offset="0" style="stop-color:#8403B2"/>
	<stop  offset="0.728" style="stop-color:#840370"/>
	<stop  offset="1" style="stop-color:#000000"/>
</linearGradient>
<path id="Caminho_2569" class="st0" d="M383.1,260.2c-1.4,10.4-21.5,16.2-29.2,20.7l-0.7-46L346,235v-0.1l-7.4,0.1l0.7,46
	c-7.8-4.2-28.1-9.3-29.8-19.7h-0.1c0.7,20.6,11,28.1,23.6,36.7c3.9,2.6,7.9,5.5,12,8.8c0.6,0.5,1.3,0.7,2,0.7v0.1
	c0.8,0,1.6-0.2,2.2-0.8c4-3.5,7.9-6.4,11.7-9.2c12.3-9,22.3-16.8,22.4-37.4L383.1,260.2z"/>
<path id="Caminho_2570" class="st1" d="M383.2,254c-1.4,10.4-21.5,16.2-29.2,20.7l-0.7-46l-7.2,0.1v-0.1l-7.4,0.1l0.7,46
	c-7.8-4.2-28.1-9.3-29.8-19.7h-0.1c0.7,20.6,11,28.1,23.6,36.7c3.9,2.6,7.9,5.5,12,8.8c0.6,0.5,1.3,0.7,2,0.7v0.1
	c0.8,0,1.6-0.2,2.2-0.8c4-3.5,7.9-6.4,11.7-9.2c12.3-9,22.3-16.8,22.4-37.4L383.2,254L383.2,254z"/>
<linearGradient id="Caminho_2571_1_" gradientUnits="userSpaceOnUse" x1="1225.6523" y1="-185.0291" x2="1226.6522" y2="-185.0291" gradientTransform="matrix(22.5053 0 0 34.6014 -27249.6777 6609.8682)">
	<stop  offset="0" style="stop-color:#8403B2"/>
	<stop  offset="0.383" style="stop-color:#840370"/>
	<stop  offset="0.905" style="stop-color:#000000"/>
</linearGradient>
<path id="Caminho_2571" class="st2" d="M356.6,202.5c-0.1-6.8-5.2-12.3-11.4-12.2c-6.2,0.1-11.2,5.7-11.1,12.5
	c0,3.8,1.7,7.4,4.6,9.8l0.1,12.3l13.5-0.2l-0.1-12.3C355,209.9,356.6,206.3,356.6,202.5z M345.3,200.2c0.6,0,1.2,0.3,1.6,0.7
	c0.5,0.5,0.7,1.1,0.7,1.8c0,1.3-0.9,2.4-2.2,2.5c-0.6,0-1.2-0.3-1.6-0.7c-0.5-0.5-0.7-1.1-0.7-1.8C343,201.4,344,200.3,345.3,200.2z
	"/>
<g id="Grupo_1049">
	
		<linearGradient id="Retângulo_154_1_" gradientUnits="userSpaceOnUse" x1="1235.1003" y1="-175.3593" x2="1236.1003" y2="-175.3593" gradientTransform="matrix(42.2 0 0 12.5 -51797.4727 2425.0435)">
		<stop  offset="0" style="stop-color:#8403B2"/>
		<stop  offset="0.383" style="stop-color:#840370"/>
		<stop  offset="0.905" style="stop-color:#000000"/>
	</linearGradient>
	<rect id="Retângulo_154" x="323.9" y="226.8" class="st3" width="42.2" height="12.5"/>
	
		<linearGradient id="Retângulo_155_1_" gradientUnits="userSpaceOnUse" x1="1171.1011" y1="-175.3593" x2="1172.1011" y2="-175.3593" gradientTransform="matrix(-6.1 0 0 12.5 7516.2622 2425.0435)">
		<stop  offset="0" style="stop-color:#8403B2"/>
		<stop  offset="0" style="stop-color:#840370"/>
		<stop  offset="0.978" style="stop-color:#000000"/>
	</linearGradient>
	<rect id="Retângulo_155" x="364" y="226.8" class="st4" width="6.1" height="12.5"/>
</g>
<text transform="matrix(1 0 0 1 395.611 271.2523)" class="st5 st6 st7">FIDELIZE</text>
<text transform="matrix(1 0 0 1 555.2192 275.8782)" class="st8 st9 st10">mais</text>
</svg>
