<svg xmlns="http://www.w3.org/2000/svg" width="804.664" height="433.033" viewBox="0 0 804.664 433.033"><defs><style>.a{fill:#3f3d56;}.b{fill:#ff6584;}.c{fill:#a261da;}.d{fill:#fff;}.e{opacity:0.2;}</style></defs><g transform="translate(0 -0.019)"><path class="a" d="M329.812,678.951H328a85.155,85.155,0,1,0-170.31,0h-1.812a86.967,86.967,0,0,1,173.934,0Z" transform="translate(-155.878 -246.834)"/><path class="a" d="M1025.814,678.951H1024a85.155,85.155,0,1,0-170.31,0H851.88a86.967,86.967,0,0,1,173.934,0Z" transform="translate(-221.369 -246.834)"/><path class="a" d="M776.133,442.611h-1.812c0-85.917-69.9-155.816-155.816-155.816S462.69,356.694,462.69,442.611h-1.812c0-86.916,70.711-157.627,157.627-157.627S776.133,355.7,776.133,442.611Z" transform="translate(-184.577 -217.947)"/><circle class="b" cx="36" cy="36" r="36" transform="translate(96 0.019)"/><path class="a" d="M153.891,303.779l61.476-73.212H336.231l73.862,71.943-1.492.959h.533V453.111H153.975V303.47Z" transform="translate(-14.48 -21.695)"/><rect class="a" width="13.935" height="48.238" transform="translate(190.333 250.254) rotate(180)"/><path class="c" d="M214.417,229.508l75.78,88.845V453.012H153.984V301.451Z" transform="translate(-14.489 -21.596)"/><rect class="a" width="27.818" height="28.444" transform="translate(230.377 314.389)"/><rect class="a" width="27.818" height="28.444" transform="translate(230.377 353.092)"/><rect class="d" width="27.818" height="28.444" transform="translate(230.377 314.389)"/><rect class="d" width="27.818" height="28.444" transform="translate(230.377 353.092)"/><rect class="a" width="27.818" height="28.444" transform="translate(191.905 314.389)"/><rect class="a" width="27.818" height="28.444" transform="translate(191.905 353.092)"/><rect class="d" width="27.818" height="28.444" transform="translate(191.905 314.389)"/><rect class="d" width="27.818" height="28.444" transform="translate(191.905 353.092)"/><rect class="a" width="27.818" height="28.444" transform="translate(153.432 314.389)"/><rect class="a" width="27.818" height="28.444" transform="translate(153.432 353.092)"/><rect class="d" width="27.818" height="28.444" transform="translate(153.432 314.389)"/><rect class="d" width="27.818" height="28.444" transform="translate(153.432 353.092)"/><rect class="c" width="13" height="32" transform="translate(439 36.019)"/><rect class="c" width="108" height="367" transform="translate(343 65.019)"/><rect class="a" width="44" height="367" transform="translate(451 65.019)"/><rect class="d" width="16.306" height="16.306" transform="translate(362.815 96.932)"/><rect class="d" width="16.306" height="16.306" transform="translate(389.086 96.932)"/><rect class="d" width="16.306" height="16.306" transform="translate(415.357 96.932)"/><rect class="d" width="17" height="16" transform="translate(363 134.019)"/><rect class="d" width="16" height="16" transform="translate(390 134.019)"/><rect class="d" width="16" height="16" transform="translate(416 134.019)"/><rect class="d" width="16.306" height="16.306" transform="translate(363.721 171.216)"/><rect class="d" width="16.306" height="16.306" transform="translate(389.992 171.216)"/><rect class="d" width="16.306" height="16.306" transform="translate(416.263 171.216)"/><rect class="d" width="16" height="17" transform="translate(364 208.019)"/><rect class="d" width="17" height="17" transform="translate(390 208.019)"/><rect class="d" width="16" height="17" transform="translate(417 208.019)"/><rect class="d" width="16.306" height="16.306" transform="translate(364.626 245.5)"/><rect class="d" width="16.306" height="16.306" transform="translate(390.898 245.5)"/><rect class="d" width="16.306" height="16.306" transform="translate(417.169 245.5)"/><rect class="d" width="16" height="16" transform="translate(365 283.019)"/><rect class="d" width="17" height="16" transform="translate(391 283.019)"/><rect class="d" width="16" height="16" transform="translate(418 283.019)"/><rect class="d" width="16.306" height="16.306" transform="translate(365.532 319.784)"/><rect class="d" width="16.306" height="16.306" transform="translate(391.804 319.784)"/><rect class="d" width="16.306" height="16.306" transform="translate(418.075 319.784)"/><rect class="d" width="16" height="16" transform="translate(366 357.019)"/><rect class="d" width="17" height="16" transform="translate(392 357.019)"/><rect class="d" width="17" height="31" transform="translate(392 400.019)"/><rect class="d" width="16" height="16" transform="translate(419 357.019)"/><rect class="a" width="7" height="31" transform="translate(451 36.019)"/><rect class="c" width="12.683" height="18.792" transform="translate(575.249 197.487)"/><rect class="c" width="107.803" height="217.448" transform="translate(479.223 214.669)"/><rect class="a" width="43.483" height="217.448" transform="translate(587.026 214.669)"/><rect class="d" width="16.306" height="16.306" transform="translate(500.512 245.5)"/><rect class="d" width="16.306" height="16.306" transform="translate(526.783 245.5)"/><rect class="d" width="16.306" height="16.306" transform="translate(553.055 245.5)"/><rect class="d" width="16" height="16" transform="translate(501 283.019)"/><rect class="d" width="17" height="16" transform="translate(527 283.019)"/><rect class="d" width="16" height="16" transform="translate(554 283.019)"/><rect class="d" width="16.306" height="16.306" transform="translate(501.418 319.784)"/><rect class="d" width="16.306" height="16.306" transform="translate(527.689 319.784)"/><rect class="d" width="16.306" height="16.306" transform="translate(553.96 319.784)"/><rect class="d" width="16" height="16" transform="translate(502 357.019)"/><rect class="d" width="16" height="16" transform="translate(528 357.019)"/><rect class="d" width="16" height="31" transform="translate(528 400.019)"/><rect class="d" width="17" height="16" transform="translate(554 357.019)"/><rect class="a" width="7.247" height="18.255" transform="translate(587.026 197.487)"/><rect class="a" width="804.443" height="2.03" transform="translate(0.221 431.022)"/><circle class="c" cx="23.59" cy="23.59" r="23.59" transform="translate(640.13 342.432)"/><path class="e" d="M903.825,597.631A23.592,23.592,0,0,1,864.517,622.6a23.592,23.592,0,1,0,39.308-24.967Z" transform="translate(-222.558 -247.365)"/><path class="a" d="M732.6,404.041h.065l1.166,66.882h-2.462Z" transform="translate(-68.819 -38.019)"/><rect class="a" width="1.167" height="4.407" transform="translate(667.536 401.422) rotate(62.234)"/><circle class="c" cx="35.873" cy="35.873" r="35.873" transform="translate(697.201 295.325)"/><path class="e" d="M988.344,550.134A35.876,35.876,0,0,1,928.569,588.1a35.876,35.876,0,1,0,59.775-37.967Z" transform="translate(-228.585 -242.896)"/><path class="a" d="M809.133,365.6h.1l1.774,101.707H807.26Z" transform="translate(-75.96 -34.401)"/><rect class="a" width="1.774" height="6.702" transform="translate(738.878 385.028) rotate(62.234)"/><circle class="c" cx="23.59" cy="23.59" r="23.59" transform="translate(0.561 341.526)"/><path class="e" d="M197.825,596.631A23.592,23.592,0,0,1,158.517,621.6a23.592,23.592,0,1,0,39.308-24.967Z" transform="translate(-156.126 -247.271)"/><path class="a" d="M26.6,403.041h.065l1.166,66.882H25.372Z" transform="translate(-2.387 -37.924)"/><rect class="a" width="1.167" height="4.407" transform="translate(27.967 400.515) rotate(62.234)"/><path class="a" d="M761,247.616l8.339-6.67c-6.479-.715-9.14,2.819-10.23,5.615-5.061-2.1-10.571.653-10.571.653l16.686,6.058A12.627,12.627,0,0,0,761,247.616Z" transform="translate(-211.644 -213.794)"/><path class="a" d="M299,284.616l8.339-6.67c-6.479-.715-9.14,2.819-10.23,5.615-5.061-2.1-10.571.653-10.571.653l16.686,6.057A12.626,12.626,0,0,0,299,284.616Z" transform="translate(-168.172 -217.276)"/><path class="a" d="M901,322.616l8.339-6.67c-6.479-.715-9.14,2.819-10.23,5.615-5.061-2.1-10.571.653-10.571.653l16.686,6.058A12.627,12.627,0,0,0,901,322.616Z" transform="translate(-224.818 -220.851)"/><path class="a" d="M375,264.616l8.339-6.67c-6.479-.715-9.14,2.819-10.23,5.615-5.061-2.1-10.571.653-10.571.653l16.686,6.058A12.626,12.626,0,0,0,375,264.616Z" transform="translate(-175.323 -215.394)"/><path class="a" d="M392,344.616l8.339-6.67c-6.479-.715-9.141,2.819-10.23,5.615-5.061-2.1-10.571.653-10.571.653l16.686,6.058A12.626,12.626,0,0,0,392,344.616Z" transform="translate(-176.923 -222.921)"/><path class="a" d="M750,386.616l8.339-6.67c-6.479-.715-9.141,2.819-10.23,5.615-5.061-2.1-10.571.653-10.571.653l16.686,6.058A12.627,12.627,0,0,0,750,386.616Z" transform="translate(-210.609 -226.873)"/><path class="a" d="M100.166,456H44v1.812h8.759v17.212h1.812V457.812H88.689v17.212H90.5V457.812h9.665Z" transform="translate(-4.14 -42.908)"/><path class="a" d="M321.867,674.8a12.611,12.611,0,0,0-6.315,1.695,13.572,13.572,0,0,0-22.674,10.082H334.5A12.674,12.674,0,0,0,321.867,674.8Z" transform="translate(-168.769 -254.456)"/><path class="a" d="M558.867,674.8a12.61,12.61,0,0,0-6.315,1.695,13.572,13.572,0,0,0-22.674,10.082H571.5A12.674,12.674,0,0,0,558.867,674.8Z" transform="translate(-191.07 -254.456)"/><path class="a" d="M713.867,674.8a12.61,12.61,0,0,0-6.315,1.695,13.572,13.572,0,0,0-22.674,10.082H726.5A12.674,12.674,0,0,0,713.867,674.8Z" transform="translate(-205.655 -254.456)"/><path class="a" d="M917.867,674.8a12.61,12.61,0,0,0-6.315,1.695,13.572,13.572,0,0,0-22.674,10.082H930.5A12.674,12.674,0,0,0,917.867,674.8Z" transform="translate(-224.85 -254.456)"/><path class="a" d="M1015.869,674.8a12.61,12.61,0,0,0-6.315,1.695,13.572,13.572,0,0,0-22.676,10.082H1028.5A12.674,12.674,0,0,0,1015.869,674.8Z" transform="translate(-234.071 -254.456)"/><path class="a" d="M127.494,407H113v14.494h6.719v48.839h1.812V421.494h5.964Z" transform="translate(-10.633 -38.297)"/><rect class="a" width="56.166" height="1.812" transform="translate(39.97 407.671)"/><rect class="a" width="56.166" height="1.812" transform="translate(39.97 403.142)"/><rect class="a" width="56.166" height="1.812" transform="translate(39.97 398.612)"/></g></svg>