<svg xmlns="http://www.w3.org/2000/svg" width="35.781" height="35.781" viewBox="0 0 35.781 35.781"><defs><style>.a{fill:#7d46df;}</style></defs><path class="a" d="M5.241,35.781H16.912V23.062H12.719V18.869h4.193V13.627a5.247,5.247,0,0,1,5.241-5.241h5.241v4.193H23.2a2.1,2.1,0,0,0-2.1,2.1v4.193h6.1l-.7,4.193h-5.4V35.781h9.434a5.247,5.247,0,0,0,5.241-5.241V5.241A5.247,5.247,0,0,0,30.539,0H5.241A5.247,5.247,0,0,0,0,5.241v25.3A5.247,5.247,0,0,0,5.241,35.781ZM2.1,5.241A3.148,3.148,0,0,1,5.241,2.1h25.3a3.148,3.148,0,0,1,3.145,3.145v25.3a3.148,3.148,0,0,1-3.145,3.145H23.2V25.158h5.081l1.4-8.386H23.2v-2.1h6.29V6.29H22.153a7.346,7.346,0,0,0-7.338,7.338v3.145H10.622v8.386h4.193v8.526H5.241A3.148,3.148,0,0,1,2.1,30.539Zm0,0"/></svg>