<?xml version="1.0" encoding="utf-8"?>
<!-- Generator: Adobe Illustrator 24.1.2, SVG Export Plug-In . SVG Version: 6.00 Build 0)  -->
<svg version="1.1" id="Layer_1" xmlns="http://www.w3.org/2000/svg" xmlns:xlink="http://www.w3.org/1999/xlink" x="0px" y="0px"
	 viewBox="0 0 1920 1080" style="enable-background:new 0 0 1920 1080;" xml:space="preserve">
<style type="text/css">
	.st0{fill:#662D91;}
	.st1{fill:#EEBF5D;}
	.st2{fill:url(#SVGID_1_);}
	.st3{fill:#F4DA95;}
	.st4{fill:#F0C85E;}
	.st5{fill:#D9D2CC;}
	.st6{fill:#DBA585;}
	.st7{fill:#243141;}
	.st8{fill:#1A232F;}
	.st9{fill:#E6D8D1;}
	.st10{fill:#C99A7D;}
	.st11{fill:#CB4949;}
	.st12{fill:#2C3D54;}
	.st13{fill:#EECAA2;}
	.st14{fill:#933737;}
	.st15{fill:#F0CA6A;}
	.st16{fill:#3A5271;}
	.st17{fill:#CFC3BC;}
	.st18{fill:#2C323D;}
	.st19{fill:#F3E4DC;}
	.st20{fill:#997761;}
	.st21{fill:#3D5492;}
	.st22{fill:#26283A;}
	.st23{fill:#807F7D;}
	.st24{fill:#2E3048;}
	.st25{fill:#D5D3DE;}
	.st26{fill:#60676B;}
	.st27{fill:#7F807E;}
	.st28{fill:#B1AEB7;}
	.st29{fill:#E7E4F0;}
	.st30{fill:#2D3D69;}
	.st31{fill:#363957;}
</style>
<g>
	<g>
		<g>
			<path class="st0" d="M1271.7,316.8h-264.3c-67.8,4.5-67.5,79.2-67.5,79.2l0,0v356.9h264.7V396
				C1204.6,396,1205.8,321.1,1271.7,316.8z"/>
			<g>
				<rect x="921.4" y="400.5" class="st1" width="3.1" height="274.7"/>
			</g>
			<g>
				<path class="st1" d="M1226.6,274.9h-161.5v-89.4h161.5V274.9z M1068.2,271.9h155.4v-83.3h-155.4V271.9z"/>
			</g>
			<g>
				<path class="st1" d="M924.5,368.2H763V255.7h161.5V368.2z M766.1,365.2h155.3V258.8H766.1V365.2z"/>
			</g>
			<g>
				<path class="st1" d="M1382,547.6h-161.5v-89.8H1382V547.6z M1223.6,544.5H1379v-83.7h-155.4V544.5z"/>
			</g>
			<linearGradient id="SVGID_1_" gradientUnits="userSpaceOnUse" x1="1165.0027" y1="694.0418" x2="979.5287" y2="257.9266">
				<stop  offset="0" style="stop-color:#7D46DF"/>
				<stop  offset="1" style="stop-color:#F2D05F"/>
			</linearGradient>
			<path class="st2" d="M1261.2,312c-65.9,4.3-67.2,79.2-67.2,79.2v356.9H929.3V391.2c0,0-0.3-74.7,67.5-79.2H1261.2z"/>
			<rect x="964.1" y="405.2" class="st3" width="181.8" height="16"/>
			<rect x="964.1" y="442.3" class="st3" width="155.2" height="11.4"/>
			<rect x="964.1" y="472.3" class="st3" width="78" height="16.9"/>
			<rect x="1065.2" y="472.3" class="st3" width="80.7" height="16.9"/>
			<rect x="964.1" y="504.8" class="st3" width="124.3" height="12"/>
			<rect x="964.1" y="534.9" class="st3" width="140.1" height="6.7"/>
			<rect x="964.1" y="565" class="st3" width="168.4" height="6.7"/>
			<g>
				<path class="st3" d="M1042.7,632.4h-79.2v-37.9h79.2V632.4z M964.7,631.2h76.9v-35.6h-76.9V631.2z"/>
			</g>
			<rect x="1061.7" y="595" class="st3" width="70.8" height="8.7"/>
			<rect x="1061.7" y="613.4" class="st3" width="50.2" height="8.7"/>
			<rect x="964.1" y="655.2" class="st3" width="151.5" height="6.7"/>
			<rect x="964.1" y="685.3" class="st3" width="79.8" height="6.7"/>
			<g>
				<g>
					<g>
						<g>
							<g>
								<g>
									<path class="st4" d="M1262.2,513.2l-7.8-12.8c-0.6-1-0.3-2.4,0.7-3.1c1-0.6,2.4-0.3,3.1,0.7l5.5,9l14.7-8.7
										c1.1-0.6,2.4-0.3,3,0.8c0.6,1.1,0.3,2.4-0.8,3L1262.2,513.2z"/>
								</g>
							</g>
						</g>
					</g>
				</g>
				<g>
					<path class="st4" d="M1267.4,532.9c-15.5,0-28.1-12.6-28.1-28.1c0-15.5,12.6-28.1,28.1-28.1c15.5,0,28.1,12.6,28.1,28.1
						C1295.5,520.3,1282.9,532.9,1267.4,532.9z M1267.4,480.7c-13.3,0-24.1,10.8-24.1,24.1c0,13.3,10.8,24.1,24.1,24.1
						s24.1-10.8,24.1-24.1C1291.5,491.5,1280.7,480.7,1267.4,480.7z"/>
				</g>
			</g>
			<polygon class="st4" points="1132.8,220.9 1133.4,232.7 1138.1,232.4 1137.2,212.7 1116.9,213.6 1117.2,218.3 1129.4,217.7 
				1107.8,241.3 1085.4,220.9 1082.3,224.4 1108.2,248 			"/>
			<g>
				<path class="st4" d="M821.4,297c-0.5-0.5-1.1-1.1-2-1.6c-0.9-0.6-1.9-1.2-3.1-1.7c-1.2-0.5-2.5-1-3.9-1.4
					c-1.4-0.4-2.8-0.6-4.3-0.7l-0.1,15.8l1.5,0.3c2.7,0.7,5.2,1.4,7.4,2.2c2.2,0.8,4.1,1.8,5.6,3c1.5,1.2,2.7,2.6,3.5,4.3
					c0.8,1.7,1.2,3.8,1.2,6.2c0,2.7-0.5,5-1.5,6.9c-1,1.9-2.3,3.5-4,4.8c-1.7,1.3-3.7,2.2-6,2.8c-2.3,0.6-4.7,1-7.3,1l0,8l-4,0
					l0-8.2c-3.7-0.3-7.2-1-10.5-2.2c-3.3-1.2-6.3-2.9-9.1-5l3.9-7.3c0.6,0.6,1.4,1.3,2.4,2c1.1,0.7,2.3,1.4,3.7,2.1
					c1.4,0.7,3,1.3,4.7,1.8c1.7,0.5,3.5,0.9,5.3,1.1l0.1-15.8c-0.3-0.1-0.6-0.2-1-0.3c-0.3-0.1-0.6-0.2-1-0.3
					c-2.7-0.7-5.1-1.5-7.1-2.3c-2-0.8-3.7-1.8-5-2.9c-1.3-1.1-2.3-2.4-3-3.9c-0.7-1.5-1-3.3-1-5.5c0-2.5,0.4-4.7,1.3-6.6
					c0.9-1.9,2.1-3.6,3.7-5c1.6-1.4,3.4-2.5,5.5-3.3c2.1-0.8,4.4-1.3,7-1.5l0-7.7l4,0l0,7.7c3.3,0.2,6.4,0.9,9.2,2
					c2.8,1.1,5.3,2.5,7.4,4.1L821.4,297z M796.2,299c0,2.1,0.7,3.7,2.2,4.8c1.5,1.1,3.8,2,6.8,2.8l0.1-15.1
					c-3.1,0.1-5.4,0.9-6.9,2.2C796.9,295,796.2,296.8,796.2,299z M818.2,324.4c0-2.2-0.9-3.9-2.7-5.1c-1.8-1.2-4.3-2.2-7.5-3.1
					l0,15.1c3.3,0,5.8-0.6,7.5-1.8C817.3,328.3,818.2,326.6,818.2,324.4z"/>
			</g>
			<rect x="845.6" y="287.8" class="st5" width="63.4" height="9"/>
			<rect x="845.6" y="307.5" class="st5" width="49.8" height="9"/>
			<rect x="845.6" y="327.2" class="st5" width="55.9" height="9"/>
			<rect x="1307.1" y="488.3" class="st5" width="45.3" height="9"/>
			<rect x="1307.1" y="508.1" class="st5" width="50.8" height="9"/>
			<rect x="1151.7" y="206" class="st5" width="57.6" height="9"/>
			<rect x="1151.7" y="225.7" class="st5" width="45.3" height="9"/>
			<rect x="1151.7" y="245.4" class="st5" width="50.8" height="9"/>
			<g>
				<polygon class="st5" points="1262.7,607.3 1213.7,607.3 1213.7,604.2 1259.6,604.2 1259.6,549.6 1262.7,549.6 				"/>
			</g>
			<g>
				<polygon class="st5" points="1027.8,306.6 1024.7,306.6 1024.7,290.7 1131,290.7 1131,279.6 1134,279.6 1134,293.8 
					1027.8,293.8 				"/>
			</g>
			<g>
				<polygon class="st5" points="909,494.1 853.3,494.1 853.3,373.8 856.3,373.8 856.3,491 909,491 				"/>
			</g>
			<g>
				<path class="st1" d="M1213.8,445.2h-3.1v-36.3c0-0.6-3.9-70.3,54.9-80.5l0.5,3c-56.1,9.7-52.4,76.7-52.4,77.3L1213.8,445.2z"/>
			</g>
			<g>
				<polygon class="st1" points="1389.8,515.1 1386.7,515.1 1386.7,453.4 1320.6,453.4 1320.6,450.4 1389.8,450.4 				"/>
			</g>
			<g>
				<polygon class="st1" points="817.2,377.4 754.4,377.4 754.4,318.2 757.5,318.2 757.5,374.3 817.2,374.3 				"/>
			</g>
			<g>
				<polygon class="st1" points="1060.9,225.7 1057.9,225.7 1057.9,179.1 1135.8,179.1 1135.8,182.2 1060.9,182.2 				"/>
			</g>
			<g>
				<polygon class="st1" points="1215.2,763.4 1158.1,763.4 1158.1,760.4 1212.2,760.4 1212.2,673.7 1215.2,673.7 				"/>
			</g>
			<g>
				<path class="st3" d="M1171.5,702.9h-49.8v-49.8h49.8V702.9z M1126.3,698.3h40.6v-40.6h-40.6V698.3z"/>
			</g>
			<g>
				<polygon class="st3" points="1147.4,688.3 1129.9,671.8 1135.1,666.3 1147.7,678.2 1175.2,655.6 1180.1,661.5 				"/>
			</g>
			<g>
				<path class="st6" d="M1180,680.3c0,0-2.5,1-4.5,1.2c-1.9,0.2-4.8,2.2-5.5,3.1c-0.7,0.9-6.6,7.2-6.7,8c-0.1,0.8,1.5,0.5,2-0.1
					c0.5-0.6,5.7-5.7,5.7-5.7s-5.8,6.4-5.7,7.2c0,0.8,0.9,1.4,2,0.7c0,0,0.9,1.7,2.4,0.2l3-3c0,0-1.3,1.8,0.4,1.3
					c0.9-0.3,3.9-4.1,4.7-4.6c0.8-0.6,4-5.4,4-5.4L1180,680.3z"/>
				<path class="st7" d="M1200.5,804.8c0,0-2.2,4.4-3.5,5.3c-1.3,0.9-8.8,8.1-10.3,8.8c-1.5,0.7-6.5,1.6-6.4,3.9
					c0.1,2.3,12.7,1.6,15.2,0.7c2.5-0.9,6.6-6.5,8.2-6.4c1.7,0.1,1.1,6.8,1.1,6.8h1.8c0,0,2.3-7.2,2.2-9.7c-0.1-2.5-1.5-9.4-1.5-9.4
					H1200.5z"/>
				<path class="st7" d="M1231.3,802c0,0-1,4.3-2.6,5.9c-1.6,1.5-7.5,7.9-9,8.6c-1.5,0.7-4.4,1.2-5.3,2.3c-0.9,1.1-0.4,4.3,5.3,4
					c5.7-0.3,7.5-0.3,8.9-1.4c1.3-1.1,5.7-5.1,7-5.2v6.3h1.6c0,0,2.7-8.2,1.8-11.7c-1-3.5-0.9-8.2-0.9-8.2L1231.3,802z"/>
				<path class="st6" d="M1229.1,615.9c0,0,2.6,6.7,0.6,11.8c0,0,9.5-0.6,9.8-1.7c0.4-1.1-0.4-11,0.9-14S1229.1,615.9,1229.1,615.9z
					"/>
				<g>
					<g>
						<g>
							<path class="st6" d="M1246.2,705.1c0,0-0.5,1.5-0.5,2.5c0.1,0.8-0.4,2.2-0.6,3c-0.2,0.8-0.6,4.1-0.5,4.9
								c0,0.3,1.1,2.3,1.1,2.9c0,0.7-0.1,2.1,0.5,2c0.6,0,1.1-1.3,1.1-1.3s0.1,0.6,0.6,0.8c1,0.2,1.5-0.3,1.5-0.3s0.5,0.6,0.9,0.6
								c1,0,1.4-0.5,1.4-0.5s0.5,0.3,1.2,0.1c0.9-0.2,1.1-1,1.1-1s1.1,0,1.4-0.6c0.2-0.6,0.1-1.1,0.1-1.6c0.1-0.5-0.8-4.8-2.7-7.6
								c-2-2.8-1-6.3-1-6.3L1246.2,705.1z"/>
						</g>
					</g>
				</g>
				<g>
					<path class="st8" d="M1243.2,728.5l-1.2-8.1c-0.2-1.3,0.7-2.5,2-2.7l12.8-1.9c1.3-0.2,2.5,0.7,2.7,2l1.2,8.1
						c0.2,1.3-0.7,2.5-2,2.7l-12.8,1.9C1244.6,730.7,1243.4,729.8,1243.2,728.5z M1244.3,719.2c-0.4,0.1-0.7,0.5-0.7,0.9l1.2,8.1
						c0.1,0.4,0.5,0.7,0.9,0.7l12.8-1.9c0.4-0.1,0.7-0.5,0.7-0.9l-1.2-8.1c-0.1-0.4-0.5-0.7-0.9-0.7L1244.3,719.2z"/>
				</g>
				<g>
					
						<rect x="1230.7" y="725.2" transform="matrix(-0.9896 0.1435 -0.1435 -0.9896 2602.9146 1297.5803)" class="st9" width="47.9" height="34.9"/>
				</g>
				<g>
					<g>
						<path class="st10" d="M1247.1,718.9c0,0-0.8-3.8,0.1-4.9c0.9-1,1.2,0.3,1.2,0.3s-0.4-1.3,0.7-1.8c1.1-0.4,1.4,1.2,1.4,1.2
							s0-1.1,1.2-1.1c1.2,0,1.1,1.4,1.1,1.4s0.9-1.6,1.8-0.4c1.6,1.9,0.8,4.7,0.8,4.7s-0.2,0.7-1.4,0.6c0,0-0.5,1.6-2.3,0.9
							c0,0-1.5,1.3-2.4-0.1C1249.4,719.7,1247.7,721,1247.1,718.9z"/>
					</g>
				</g>
				<path class="st11" d="M1228.1,625.4c0,0-5.6,1.9-8.1,2.5c-2.5,0.5-7.8,3-7.4,12.2c0.4,9.2,2,17.1,2.6,21.1
					c0.6,3.9,0.2,14-0.7,18.9c0,0,13.4,3.3,29.2,0c0,0-2.8-8.3-2.7-10.5c0.1-2.2,9.3-19.9,9.8-22.7c0.4-2.8,2.3-15.1-1.9-17.9
					c-4.2-2.7-7.7-2.4-9.5-3.6C1237.5,624.2,1230.8,624.6,1228.1,625.4z"/>
				<path class="st11" d="M1221,627.7c0,0-6.2-0.2-10.6,9.5c-4.4,9.7-5.5,15.4-6.5,16.7c-1,1.4-4.5,6.7-8,9.3
					c-3.4,2.6-17.8,17.1-17.8,17.1l3.9,5c0,0,20.7-14.6,22.8-17.1c2.2-2.5,15.2-21.5,16-24.4C1221.7,640.9,1227.8,630.7,1221,627.7z
					"/>
				<path class="st11" d="M1258,675.8c0,3.9-4,30.3-4,30.3l-7.6,0.3c0,0,2.4-26.2,3.3-32.3c0.3-1.8,0-4.5-0.4-7.6v0
					c-0.3-1.9-0.6-3.9-1-5.9c-1-5.3-2.3-9.9-2.3-9.9s-6.9-22.6,3.7-20.9c0,0,3.6,4.3,4.8,11.1c1.2,6.8,2.4,16.9,2.2,20.9
					C1256.5,665.9,1258,673,1258,675.8z"/>
				<path class="st12" d="M1214.5,680.1c0,0-2.4,5.8-2.7,7.2c-0.2,1.5-7.9,20.5-8.4,26.1c-0.5,5.6-2.2,20.7-2.7,22.8
					c-0.6,2.2,1.3,11.8,1.6,13.9c0.3,2.2,0.1,37.3-2.4,54.7c0,0,6,2.6,10.6,0c0,0,7.6-27.1,7.2-42.8c-0.4-15.6-2.4-22.2,0-28.6
					c2.4-6.3,16.6-25.3,18.1-27.3c1.4-2,10.4-13.1,1.9-25.1C1229.1,669,1214.5,680.1,1214.5,680.1z"/>
				<path class="st12" d="M1243.9,731.4c-0.8,5,0,11.6,1.6,30c1.6,18.4-2.8,40.6-2.8,40.6c-5.5,1.9-11.7,0-11.7,0
					c0.1-1.3,0-44.8,0-48.6c0-3.9-1.1-8.3-1.4-12.7c-0.2-3-1.6-8.6-3.2-14.3c-0.5-1.7-1-3.4-1.4-5.1c0,0,0,0,0,0
					c-0.3-0.9-0.5-1.9-0.8-2.7c-2.2-7.8-5.2-37.7-5.2-37.7s16.7-13.4,24.8-0.8c8.1,12.6,3.9,21.8,3.7,23.4
					C1247.1,705,1244.6,726.4,1243.9,731.4z"/>
				<path class="st11" d="M1213.2,656.6c0,0,1.1,22.6-4.3,35.6c0,0,17.8,5.9,40.7,0c0,0-4.9-16.2-4.5-18.7c0.4-2.5,9-31,6.3-37.8
					C1248.8,629,1215.8,635.4,1213.2,656.6z"/>
				<path class="st6" d="M1234.4,589.7c-4-0.5-14.4,0.4-13.6,15.9c0.8,15.6,6.5,14.6,12.1,13c5.7-1.7,12.4-13.7,12.4-16.9
					C1245.3,598.5,1245.8,591,1234.4,589.7z"/>
				<path class="st13" d="M1221.4,598.5c0,0,4.5,5.7,9,7.1c0,0,3.5,6.2,9.6,7.8c0,0,13-12.4,2.1-21.7
					C1231.1,582.4,1221.3,593.8,1221.4,598.5z"/>
				<path class="st6" d="M1229.6,603.5c0.2-0.8,2-2.6,3.5-0.6c1.5,1.9-1.2,6.5-2.2,6.5C1229.8,609.3,1229,606.7,1229.6,603.5z"/>
				<path class="st13" d="M1243.9,594.5c0.3-0.5,10.2-4.9,12.2,4.3c2,9.3-7.9,20-9.7,24.6c-1.7,4.6,0,15.6,0,15.6s-5.2-5.6-7-11.4
					C1237.4,621.4,1236.7,605.4,1243.9,594.5z"/>
				<path class="st7" d="M1237,704.4c-0.1,0.3-8.4,18.7-10.6,21.9c-0.5-1.7-1-3.4-1.4-5.1c0,0,0,0,0,0S1236.7,704.8,1237,704.4z"/>
				<path class="st14" d="M1251.1,647.8c0,0-0.3,11.7-1.7,18.8c-0.3-1.9-0.6-3.9-1-5.9C1248.4,660.5,1250.8,649.7,1251.1,647.8z"/>
			</g>
			<g>
				<g>
					<g>
						<g>
							<path class="st6" d="M956.6,707.8c0,0,1,1,1.4,1.9c0.3,0.7,1.2,1.7,1.7,2.2c0.4,0.5,2.1,3.1,2.3,3.8c0.1,0.3,0,2.3,0.2,2.9
								c0.3,0.6,0.9,1.7,0.4,1.9c-0.5,0.2-1.4-0.6-1.4-0.6s0.2,0.5-0.2,0.8c-0.8,0.6-1.4,0.2-1.4,0.2s-0.1,0.9-0.5,1
								c-0.8,0.4-1.4,0-1.4,0s-0.3,0.6-0.9,0.7c-0.8,0.2-1.3-0.5-1.3-0.5s-0.9,0.4-1.4,0c-0.4-0.4-0.5-0.7-0.8-1.1
								c-0.2-0.4-1.2-4.2-0.7-7.3c0.5-3.1-1.9-5.3-1.9-5.3L956.6,707.8z"/>
						</g>
					</g>
				</g>
				<g>
					<path class="st8" d="M965,731.2h-13.2c-1.3,0-2.4-1.1-2.4-2.4v-8.3c0-1.3,1.1-2.4,2.4-2.4H965c1.3,0,2.4,1.1,2.4,2.4v8.3
						C967.5,730.1,966.4,731.2,965,731.2z M951.9,719.7c-0.4,0-0.8,0.4-0.8,0.8v8.3c0,0.4,0.4,0.8,0.8,0.8H965
						c0.4,0,0.8-0.4,0.8-0.8v-8.3c0-0.4-0.4-0.8-0.8-0.8H951.9z"/>
				</g>
				<g>
					<rect x="933.7" y="727.7" class="st15" width="49.4" height="35.4"/>
				</g>
				<g>
					<path class="st6" d="M937.4,632.9c0,0-2.5,0-3.6,7.6c-1.1,7.6,1,10.7,1.2,13.9c0.2,3.2,3.9,23.5,4,24.4
						c0.1,0.9,0.6,11.7,2,14.6c1.4,2.9,12,19.2,12.2,20c0.1,0.8,5.1-2.8,5.1-2.8s-8.3-17.4-8.8-19.4c-0.5-2-3.8-12.1-3.3-15.2
						c0.5-3.1-1.5-20.2-1.3-22.1C945.2,651.9,942.3,634,937.4,632.9z"/>
				</g>
				<g>
					<path class="st16" d="M937.4,632.9c0,0-2.5,0-3.6,7.6c-1.1,7.6-0.1,10.3,0.5,13.6c0.6,3.1,2.7,22.1,2.8,23
						c0.1,0.9,2.6,12.3,3.9,16.4c1,3.1,10.4,19.1,10.6,19.9c0.1,0.8,7.3-3.7,7.3-3.7s-9.2-18-9.7-20c-0.5-2-2-8.9-2.1-12
						c-0.1-3.7-2.4-21.8-2.2-23.7C945.2,651.9,944.5,635.5,937.4,632.9z"/>
				</g>
				<path class="st9" d="M916.3,809.5c0,0,4.4,6.6,6.2,8.1c0,0,4.1,1.4,4.3,4.2c0.2,1.8,0,4.7-4.7,4.9c-4.7,0.1-7.7-1.5-8.5-4.3
					c-0.9-2.8-2.5-4.1-2.5-4.1v5.9h-1.1c0,0-0.3-5.7-0.3-6.8c-0.1-1.1-0.8-5.1,1.5-6.9C913.4,808.7,916.3,809.5,916.3,809.5z"/>
				<path class="st9" d="M946.2,804.3c0,0,0.8,1.8,2.2,3.7c1.1,1.4,4.3,7,5.8,7.4c1.4,0.4,5.9,1.2,6.3,3.7c0.4,2.5,0.6,4.3-3.8,4.5
					c-4.4,0.2-7.3,0.5-9.4-2.6c-2.1-3.1-5.5-5.3-5.5-5.3v8.1h-1.7c0,0-0.8-8.4-1.3-9c-0.5-0.6-1.6-7,2.4-10.4
					C945.4,800.9,946.2,804.3,946.2,804.3z"/>
				<path class="st6" d="M913.3,683.1c0,0-5.6,7.2-7.1,15.8c-1.5,8.6,0.9,37.4,0.8,41.7c-0.1,4.2-4,14.8-3.2,22.8
					c0.8,8,7.4,47.1,7.4,47.1l5.1-1c0,0-0.5-40.6,0-43.9c0.5-3.4,1.5-15.6,1.7-17c0.2-1.4,12.5-37.7,12.5-43.9
					S926.7,673,913.3,683.1z"/>
				<path class="st6" d="M941.3,685.9c0,0,9.1,34.9,10.2,39.8c1.1,4.8,2.7,8.8,2.7,10.9c0,4.8-1.8,12.4-1.8,12.4l-6.2,55.3h-4.9
					c0,0-3.1-32.3-3.6-38.8c-0.5-6.5,3.6-16.6,2.6-19.4c-1-2.8-15.9-34.7-15.9-34.7S913.1,675.8,941.3,685.9z"/>
				<path class="st6" d="M923.2,818c0,0-3.8,2-7.3-0.6c-3.5-2.6-4.7-6.8-4.7-6.8l5.1-1L923.2,818z"/>
				<path class="st6" d="M954.2,815.4c0,0-4,1-5.5,0c-1.5-1-6.7-9.7-8.4-10.2c0,0,1.7-3.4,5.8-0.9
					C946.2,804.3,953.1,813.9,954.2,815.4z"/>
				<path class="st12" d="M953,731.2c0,0-16.8,9.9-48.3,9.9c0,0-1.8-36.5,2.8-46.8c4.6-10.3,35-3.9,35-3.9S951.9,723.7,953,731.2z"
					/>
				<g>
					<path class="st9" d="M930,630.1c0,0,4.9,2.3,6.6,2.6c1.7,0.3,8.3,8.9,9.4,12c1.2,3.1,0,7.8-2.4,13.3c-2.4,5.5-0.1,7.3-1.2,12.8
						c-1.1,5.5-2,17.1-1.8,20.2c0.2,3.1-27.4,3.6-33.8-1.9c0,0,6.3-9.5,7.2-10.9c0.8-1.4,0.1-8.8-0.6-10.7
						c-0.7-1.9-5.7-18.1-5.7-18.1s-4.1-12.4-0.4-15.3c3.2-2.5,11.9-3.4,13.4-3.9C922.3,629.9,926.8,629.7,930,630.1z"/>
				</g>
				<g>
					<path class="st17" d="M931.6,641l3-3.5l-2.6-9.2C932,628.4,931.1,633.5,931.6,641z"/>
				</g>
				<g>
					<path class="st6" d="M923.8,595.5c2.9-1,13.6-3.5,16.1,10.1c2.5,13.6-5,23.3-11.9,20.8c-6.9-2.6-11.2-12-11.6-19.2
						C916,600,920.2,596.8,923.8,595.5z"/>
				</g>
				<g>
					<path class="st18" d="M939.9,605.6c0,0,0.5-11.7-11.1-12.1c-11.6-0.4-14.7,9.1-13.8,16.1c0.9,7,5.8,10.6,5.8,10.6
						s-0.4-5.6,1.8-7.1c2.3-1.5,11.3-4.4,15.2-11.2C937.9,602,939.7,604.1,939.9,605.6z"/>
				</g>
				<g>
					<path class="st18" d="M925.5,604.3c-1.5,4.6-6.1,7.3-10.1,6c-4.1-1.3-6.1-6.2-4.6-10.8c1.5-4.6,6.1-7.3,10.1-6
						C924.9,594.8,927,599.7,925.5,604.3z"/>
				</g>
				<g>
					<path class="st6" d="M932.3,624.5c0,0-1,9-0.8,11.9c0,0-5.1,5.1-10.9-5.9c0,0,2.4-4.5,0.6-10.7
						C919.5,613.5,932.3,624.5,932.3,624.5z"/>
				</g>
				<g>
					<polygon class="st6" points="931.6,636.4 931.6,641 925.7,636.7 					"/>
				</g>
				<g>
					<polygon class="st17" points="931.6,641 929.1,638 921,629.9 918.3,632.4 					"/>
				</g>
				<g>
					<path class="st16" d="M919.8,630.7c0,0,6.9,10.4,7.2,15c0.3,4.6-2.5,38.8-4.9,49.9c-2.3,11-18.9-1.2-18.9-1.2
						s11.2-18.1,6.9-32.6c-4.3-14.5-5.9-20.3-5.9-20.3s1.5-8.1,6.7-9.2C915.6,631.2,919.8,630.7,919.8,630.7z"/>
				</g>
				<g>
					<path class="st16" d="M946.5,646.2c0,0,1.2,4.4-3.6,14.1c0,0,0.1,12.4,0.2,16.3c0.1,3.9,1.1,18.5,1.1,18.5l-4.8,2.8
						c-1,0.6-2.1-0.2-2-1.3c1.3-11.1,5.7-53.4-3.7-64.7l3.8,1.1C937.4,632.9,944.2,638.4,946.5,646.2z"/>
				</g>
				<g>
					<path class="st6" d="M923.8,610.7c-0.4-1.1-1.8-1.4-2.6-0.8c-0.8,0.6-1.3,2.4,0,4.8C922.5,617.1,927,618.8,923.8,610.7z"/>
				</g>
				<g>
					<polygon class="st19" points="934.5,637.6 938.3,638.6 932,628.4 					"/>
				</g>
				<g>
					<polygon class="st19" points="929.1,638 925.7,642.5 918.7,630.8 921,629.9 					"/>
				</g>
				<g>
					<path class="st20" d="M932.1,626.5l-0.2,1.8c0,0-4,0.8-9.3-5.7C922.7,622.6,926.4,627.2,932.1,626.5z"/>
				</g>
				<g>
					<g>
						<g>
							<path class="st6" d="M952.9,681.4c0,0,2.4,1.5,3.7,0.7c1.2-0.7,3.2-0.8,3.8-0.9c0.8,0,3.3-1.1,3.4-0.1c0.1,1.1-4.1,2-4.9,2.4
								c-0.8,0.4,2.8,2.1,3.2,3c0.4,0.8-2.9,6.7-5.2,5.2c-2.4-1.5-3.9-4.7-4.3-4.8c-0.5-0.2-1.8-1-1.8-1L952.9,681.4z"/>
						</g>
					</g>
				</g>
				<g>
					<path class="st6" d="M907.8,633.8c0,0,3.3-0.8,6.1,2.2c2.9,3.1,4.3,8.1,5,9.7c0.7,1.6,10.2,16.7,10.7,17
						c0.5,0.3,10.1,8.1,14.5,12.2c4.3,4.1,12.8,8.8,12.8,8.8l-3.2,4.5c0,0-25.7-13.7-29-18.7c-3.3-5-16.3-18.9-16.3-18.9
						S900.8,638.9,907.8,633.8z"/>
				</g>
				<g>
					<g>
						<g>
							<path class="st6" d="M961.7,686c0,0,6.9,5.1,7.1,5.8c0.2,0.7-0.1,1.1-0.8,0.6c-0.7-0.5-6.8-4.7-6.8-4.7s7.1,7.4,7.4,7.9
								c0.2,0.3-0.4,1.1-0.8,0.8c-0.4-0.2-7.9-7.1-7.9-7.1s6.7,6.9,6.7,7.4c0.1,0.5-0.6,1-1.1,0.5c-0.5-0.5-7.1-6.5-7.1-6.5
								s4.5,5.3,4.3,5.8c-0.1,0.3-0.6,1-1.7-0.5c-1.1-1.4-4.1-4.5-4.1-4.5L961.7,686z"/>
						</g>
					</g>
				</g>
				<path class="st12" d="M944,657.8c0,0,0.2,15.5-0.7,22.9l-0.4-20.5L944,657.8z"/>
				<g>
					<path class="st16" d="M909.5,632.7c0,0,1.9,0.3,4.7,3.4c2.9,3.1,4.3,8.1,5,9.7c0.7,1.6,10.2,16.7,10.7,17
						c0.5,0.3,8.4,5.7,12.7,9.9c4.3,4.1,12.4,9.1,12.4,9.1l-4.1,6.2c0,0-22.7-12.6-26.3-17.3c-3.8-5.1-17.5-20.1-17.5-20.1
						S898.3,636.8,909.5,632.7z"/>
				</g>
				<g>
					<g>
						<path class="st10" d="M961.3,719.4c0,0-0.9-3.4-2-4c-1.1-0.5-0.9,0.7-0.9,0.7s-0.2-1.2-1.3-1.2c-1,0.1-0.7,1.5-0.7,1.5
							s-0.4-0.9-1.4-0.5c-1,0.4-0.4,1.6-0.4,1.6s-1.3-0.9-1.6,0.3c-0.5,2.2,1.1,4.2,1.1,4.2s0.5,0.4,1.4,0c0,0,1,1.2,2.2-0.1
							c0,0,1.7,0.5,1.9-1C959.7,721,961.6,721.4,961.3,719.4z"/>
					</g>
				</g>
				<path class="st12" d="M925,674.2l-7.8-12.5c0,0,6.6,7.8,7.3,8.7c0.7,0.8,0.7,0.9,0.7,0.9S925.1,673.8,925,674.2z"/>
			</g>
			<g>
				<path class="st6" d="M1006,704.4c0,0,0.5,2.4,1.5,4.9c0.5,1.2,0.7,9.1,0.6,10.2c0,0.9-0.6,0.4-0.9-0.2c-0.2-0.3-0.7-3.1-1.2-4.5
					c-0.4-1.2-0.8-1.7-1-1.3c-0.2,0.4-0.6,5.5-0.1,7.7c0.5,2.2,0,7.2-1.2,6.5c-1.1-0.7-3.8-9.8-3.6-13.2c0.2-3.4,1.4-7.7,1.4-7.7
					L1006,704.4z"/>
				<g>
					<path class="st21" d="M1004.9,709c0,0,3.7-24.8,4.7-29.6c0.4-2.1,1.7-7.5,2.5-11.8c0.3-1.4,0.5-2.9,0.7-4.4c0,0,0,0,0,0
						c0.7-5.8,0.9-11.1,0.9-11.1s3.2-14.8-6.1-15.8c0,0-2.5,0.8-2.7,1.8c-0.6,4-1.9,12.5-1.9,14.6c0,1.7-2.5,18.3-2.5,18.9
						c-0.1,1.1-0.6,8.9-0.9,12.2c-0.5,7.9-0.7,25.6-0.7,25.6L1004.9,709z"/>
				</g>
				<g>
					<path class="st22" d="M1001.9,814.9c0,0-3.6,4-7.3,4.9c-3.7,0.8-6.2,1.9-6.3,4.2c0,2.3,10.6,3.8,14.8,1.5
						c6.3-3.5,6.9-2.4,7.6-4.2c0.7-1.7-0.8-6.4-0.8-7C1010,813.7,1001.9,814.9,1001.9,814.9z"/>
				</g>
				<g>
					<path class="st22" d="M1038.8,815.9c0,0-2.7,3.9-6.2,4.8c-3.5,0.9-5.8,2.6-6,4.8c-0.2,2.3,8.3,5.2,14.2,1.2
						c3.9-2.6,5.4-2.5,6.1-4.1c0.8-1.7-0.4-6.3-0.3-6.8C1046.8,815.3,1038.8,815.9,1038.8,815.9z"/>
				</g>
				<g>
					<path class="st23" d="M1002.3,813c0,0-0.5,1.9-0.4,1.9c0.1,0,8.3,1,8-0.5c-0.2-1.2-0.5-2.6-0.5-2.6L1002.3,813z"/>
				</g>
				<g>
					<path class="st23" d="M1038.9,814c0,0-0.2,1.9-0.1,1.9c0.1,0,7.9,1.5,7.8,0c0-1.2-0.5-2.7-0.5-2.7L1038.9,814z"/>
				</g>
				<g>
					<path class="st24" d="M1009.8,699.7c0,0-3,29-4.5,38.9c-1.8,11.6-2.4,21.2-2.9,27.2c-0.6,7.6-0.8,44.7-1.2,46.9
						c-0.4,2.2,9.9,0.6,9.9,0.6s5.1-48.5,7-56.6c1.8-7.5,8.3-39.7,9.9-37.7c1.6,2,3.6,37.6,4.8,43.5c1.2,5.9,4.8,52.1,4.8,52.1
						s8.2,1.6,10.4-0.2c0,0,1-39.8,0.2-50.9c-0.3-4.2,4.9-50.6-1.8-69.3C1042.9,684.5,1009.8,699.7,1009.8,699.7z"/>
				</g>
				<g>
					<path class="st25" d="M1060.9,703.8c0,0-5,1.5-7.1,1.1c-2.1-0.4-1-26.2-1.1-31.6c-0.1-4.4-2.5-15.9-2.5-15.9s0,0,0,0
						c0,0,0,0,0,0c0,0,0,0,0,0c-0.2,0.9-3.5,12.8-3.6,18.6c-0.1,6,0.8,28.8,0.8,28.8l-8,3.8l-27.7,0.8l-4,0.1c0,0,0.6-13.5,0.9-18.1
						c0.1-2.9,0.7-8.2,0.6-13.3c0,0,0.1-5.4-0.4-7.7c-0.1-10.3-0.7-20.5-0.7-20.5c-0.3-4.7-0.6-9-0.7-13.1c1.1-0.6,2.5-1.3,3.6-1.8
						c3.4-1.6,8-3.7,11-5.1c1.8-0.8,3.5-1.4,3.5-1.4s12-1.1,12.9-1.1c0.3,0,1.8,0.5,3.8,1.3c4.2,1.6,12.4,4.9,13.7,5.8
						c1.9,1.4,6,33.9,6.1,36.2C1062.2,674.6,1060.9,703.8,1060.9,703.8z"/>
				</g>
				<g>
					<path class="st6" d="M1038.2,627.2c-0.9,8.1-9.8,8.1-9.8,8.1s-3.7-3.2-3.6-5.6c0-0.1,0-0.1,0-0.2c0.1-0.4,0.6-1,0.6-1.9
						c0-0.1,0-0.2,0-0.4c0-0.1,0-0.2,0-0.4c0-0.6,0-1.2-0.1-1.6c0-0.1,0-0.3,0-0.4c0-0.1,0-0.2,0-0.2s1.4-1.5,3.3-3.3
						c3.2-3.2,7.6-7.2,7.6-5.6c0,0.1,0,0.2,0,0.3C1035.4,619.6,1038.2,627.2,1038.2,627.2z"/>
				</g>
				<g>
					<path class="st26" d="M1037.4,693.9c0,0,0.7,4.6,0.8,5.8l1.5-0.3c0,0-0.4-4.8-0.7-5.6L1037.4,693.9z"/>
				</g>
				<g>
					<path class="st27" d="M1062.5,720.5c0,0-0.5-6.4-2.2-7.4c-1.7-1-0.7,1-0.7,1s1,4.6,1.3,6.5
						C1060.9,720.7,1062.5,720.5,1062.5,720.5z"/>
				</g>
				<g>
					<g>
						<polygon class="st27" points="1045.6,725 1068.2,718.2 1068.5,746.2 1046.2,760.1 						"/>
					</g>
				</g>
				<g>
					<polygon class="st27" points="1046.2,760.1 1049,760.5 1070.8,746.6 1070.1,718.3 1068.2,718.2 					"/>
				</g>
				<path class="st28" d="M1032.1,632l-3.7,3.3c0,0,4.3-0.3,5.1-1L1032.1,632z"/>
				<path class="st24" d="M1008.5,705.1c0,0,17.5,1.5,32.9,0v5c0,0-23,3.3-33.6-1L1008.5,705.1z"/>
				<g>
					<path class="st21" d="M1021.9,629.7c-1,0.4-2.1,1-3.3,1.5c-2.5,1.2-5.4,2.5-7.7,3.6c-1.2,0.6-2.7,1.2-3.8,1.7
						c0.1,4.1,0.3,8.6,0.7,13.3c0,0,0.3,11.6,1,22.6c0.2,1.6,0.3,3.2,0.2,4.8c-0.2,2.2-0.4,4.5-0.7,7c0,0,0,0.1,0,0.1
						c-0.1,0.6-0.1,1.2-0.2,1.8c0,0,0,0,0,0c-1.5,12.3-4,26.3-5.3,30.6c-0.3,0.9,0.7,1.7,1.4,2.3l4.8,3c0,0,2-18.2,2.6-24.4
						c0.6-6,2.6-13.9,3.5-21.7v0c1.1-9.9,2.6-19.5,3.4-25.3c2.1-15,5-21.7,5-21.7L1021.9,629.7z"/>
				</g>
				<g>
					<path class="st21" d="M1052.3,673.6c0.4,5-1.7,32.6,0.4,33c2.1,0.4,9.9-1.3,9.9-1.3s1-29.8,0.7-32.9
						c-0.2-2.3-3.8-36.4-5.8-37.7c-1.1-0.8-9.3-3.7-13.3-5.3c-0.7-0.3-1.4-0.6-2.1-0.8c-0.9,0.9-9.9,17.6-10.6,31.2
						c-0.2,4.1,0.8,12.9,1.5,20c0.8,7.6,1.7,13.5,2.3,19.9c1.3,12.5,2.1,22.5,2.1,22.5l12.5-5.6c2-1,4.8-5.1,4.1-7.3
						c-2.9-8.1-6.5-21.9-6.5-28.9c0,0,1.4-17.3,2.5-21.2C1049.9,659.2,1051.8,667.2,1052.3,673.6z"/>
				</g>
				<g>
					<path class="st6" d="M1054.6,706.3c0,0-0.6,2.8-1.4,5.6c-0.8,2.8-1.6,3.7-1.2,5.3c0.3,1.2,1.7,2.1,2,1.7
						c0.3-0.4,0.4-5.1,2.4-5.1c1.9,0-0.5,5.8,0.7,5.3c1.1-0.4,5.5-2.9,5.2-5.3c-0.3-2.3-2.1-4-2-7.5c0.1-3.2-1-4.5-1-4.5
						L1054.6,706.3z"/>
				</g>
				<g>
					<g>
						<path class="st27" d="M1056.1,713.5c0,0-2.6,0.7-2.3,9.4l2.9-0.5c0,0-0.1-4.8,0.7-7.4C1057.4,715,1057.3,713.3,1056.1,713.5z"
							/>
					</g>
				</g>
				<g>
					<path class="st21" d="M1052,687.6l0.1,22c0,0,4.4-0.2,10.4-2.4l0.4-31L1052,687.6z"/>
				</g>
				<path class="st25" d="M1024.3,632.6c0,0-0.3,4.6,3.6,4.7c3.9,0.1,7-3.6,7-3.6l-6.4,1.7l-3.9-3.3L1024.3,632.6z"/>
				<path class="st29" d="M1037.7,625.7c0,0-3.7,4.7-5.6,6.3l3.1,5.3l5.4-9.2L1037.7,625.7z"/>
				<path class="st28" d="M1025.1,632.8l3.3,2.5c0,0-2.9-5.3-3-7.7L1025.1,632.8z"/>
				<polygon class="st29" points="1025.4,627.6 1023.3,629.1 1020.9,636.2 1025.1,632.8 				"/>
				<path class="st30" d="M1008.2,664.2c0,0,0.9,8.2,0.4,15.6c-0.5,7.5-2.5,19.4-2.5,19.4S1006.1,673.1,1008.2,664.2z"/>
				<g>
					<path class="st6" d="M1014.9,604c0,0-2.3,5.7-0.8,6.4c1.3,0.6-0.8,6.1-1,7c-0.2,0.9,2.3,1.3,2.9,1.8c0.6,0.5,2.9,7.2,5,7.2
						c2.1,0,11-4.2,13.2-7.1c2.2-2.9,3.1-14.9,0.9-19.7C1032.8,594.7,1019,594.1,1014.9,604z"/>
				</g>
				<g>
					<path class="st31" d="M1014.4,605.2c0,0-3.6-5.5,1.4-10.4c4.9-4.9,15.7,1.6,16.8,1.8c1.1,0.2,7.9,1.6,5.6,11.9
						c-2,9.1-2.2,9.4-2.2,9.4s-2.7-4.8-3.9-5.5c-2-1.1-5.9-0.4-5.9-0.4s1.4-5.2-1.7-5.6C1021.5,605.9,1017.3,603.8,1014.4,605.2z"/>
				</g>
				<g>
					<path class="st6" d="M1029,608.7c0.2-0.7,0.7-3.8,3.5-2.3c2.7,1.5-0.8,7.5-1.3,7.6C1030.8,614.2,1027.5,614.8,1029,608.7z"/>
				</g>
				<path class="st20" d="M1033.8,619.7c-0.1,0.2-2.1,5.1-8.3,7.6c0-0.1,0-0.2,0-0.4c0-0.6,0-1.2-0.1-1.6c0-0.1,0-0.3,0-0.4
					C1025.3,624.9,1032,621.7,1033.8,619.7z"/>
			</g>
		</g>
	</g>
</g>
</svg>
