<svg xmlns="http://www.w3.org/2000/svg" width="35.507" height="35.507" viewBox="0 0 35.507 35.507"><defs><style>.a{fill:#7d46df;}</style></defs><g transform="translate(0 0)"><path class="a" d="M5.2,35.507h25.1a5.207,5.207,0,0,0,5.2-5.2V5.2a5.207,5.207,0,0,0-5.2-5.2H5.2A5.207,5.207,0,0,0,0,5.2v25.1A5.207,5.207,0,0,0,5.2,35.507ZM2.08,5.2A3.124,3.124,0,0,1,5.2,2.08h25.1A3.124,3.124,0,0,1,33.426,5.2v25.1a3.124,3.124,0,0,1-3.121,3.121H5.2A3.124,3.124,0,0,1,2.08,30.306Zm0,0" transform="translate(0 0)"/><path class="a" d="M130.443,139.886A9.443,9.443,0,1,0,121,130.443,9.454,9.454,0,0,0,130.443,139.886Zm0-16.788a7.345,7.345,0,1,1-7.345,7.345A7.353,7.353,0,0,1,130.443,123.1Zm0,0" transform="translate(-112.69 -112.69)"/><path class="a" d="M364.091,67.181A3.091,3.091,0,1,0,361,64.091,3.094,3.094,0,0,0,364.091,67.181Zm0-4.121a1.03,1.03,0,1,1-1.03,1.03A1.032,1.032,0,0,1,364.091,63.06Zm0,0" transform="translate(-335.864 -56.81)"/></g></svg>