<?xml version="1.0" encoding="utf-8"?>
<!-- Generator: Adobe Illustrator 24.1.3, SVG Export Plug-In . SVG Version: 6.00 Build 0)  -->
<svg version="1.1" id="Capa_1" xmlns="http://www.w3.org/2000/svg" xmlns:xlink="http://www.w3.org/1999/xlink" x="0px" y="0px"
	 viewBox="0 0 441 222.4" style="enable-background:new 0 0 441 222.4;" xml:space="preserve">
<style type="text/css">
	.st0{fill:#8403B2;}
	.st1{font-family:'HSC-Bold';}
	.st2{font-size:36px;}
	.st3{fill:#7D46DF;}
	.st4{font-family:'ParmaInitialenMK';}
	.st5{font-size:35.468px;}
	.st6{fill:none;}
	.st7{fill:#6D368C;}
	.st8{fill:none;stroke:#FFFFFF;stroke-width:0.75;stroke-miterlimit:10;}
	.st9{fill:#FFFFFF;}
</style>
<g id="Grupo_1177" transform="translate(-47.896 -77.755)">
	<text transform="matrix(1 0 0 1 172.1003 192.6233)" class="st0 st1 st2">Fidelize</text>
	<text transform="matrix(1 0 0 1 311.0473 193.9093)" class="st3 st4 st5">mais</text>
	<path id="Caminho_2571" class="st6" d="M126.5,181.6l9.7-0.1"/>
	<path id="Caminho_3293" class="st7" d="M154.4,188c0,0.6,0,1.2-0.1,1.9c-0.6,11.6-6.7,16.3-14,21.6c-2.4,1.8-4.9,3.6-7.4,5.8
		c-0.4,0.3-0.9,0.5-1.4,0.5v-0.1c-0.5,0-0.9-0.2-1.3-0.4c-2.6-2.1-5.1-3.9-7.5-5.5c-7.4-5.1-13.6-9.5-14.7-20.8
		c-0.1-0.7-0.1-1.5-0.1-2.2h0.1c0.1,0.7,0.4,1.4,0.7,2c0.4,0.7,0.9,1.3,1.5,1.9c4.1,4.1,12.7,6.4,16.5,8.5l9.2-0.1
		c4.7-2.7,16.7-6.2,18.2-12.4l0,0c0.1-0.2,0.1-0.4,0.1-0.6L154.4,188L154.4,188z"/>
	<path id="Caminho_3294" class="st8" d="M109.2,187.2c0,0.6,0,1.2,0.1,1.9c0.6,11.9,6.9,16.8,14.4,22.3c2.4,1.8,4.9,3.7,7.5,5.9
		c0.4,0.3,0.9,0.5,1.4,0.5"/>
	<path id="Caminho_3295" class="st7" d="M126.3,200.5l-0.1-3.7l-0.4-22.9h0.1l5.2-0.1v0.1l5.2-0.1l0.5,26.6"/>
	<g id="Grupo_1049">
		<rect id="Retângulo_154" x="114.7" y="162.6" class="st7" width="33.2" height="9"/>
	</g>
	<path id="Caminho_3297" class="st7" d="M135.2,147.2h-8l-4.1,6.9l4.1,7h8l4.1-7L135.2,147.2z"/>
	<circle id="Elipse_102" class="st9" cx="131.1" cy="154.1" r="2.9"/>
</g>
</svg>
