<svg xmlns="http://www.w3.org/2000/svg" width="36.19" height="36.19" viewBox="0 0 36.19 36.19"><defs><style>.a{fill:#7d46df;}</style></defs><g transform="translate(0 0)"><path class="a" d="M8.753,33.608a17.963,17.963,0,0,0,9.278,2.569A18.188,18.188,0,0,0,36.19,18.089,18.089,18.089,0,1,0,2.583,27.437L0,36.191ZM2.133,18.089A15.892,15.892,0,1,1,9.48,31.564l-.408-.26L3.136,33.056l1.751-5.937-.26-.407a15.966,15.966,0,0,1-2.493-8.623Zm0,0" transform="translate(0 -0.001)"/><path class="a" d="M121.375,100.871a15.98,15.98,0,0,0,12.816,12.816c2.106.4,5.2.461,6.706-1.049l.842-.842a2.25,2.25,0,0,0,0-3.182l-3.367-3.367a2.25,2.25,0,0,0-3.182,0l-.842.842a1.5,1.5,0,0,1-2,.006l-3.358-3.5-.015-.015a1.322,1.322,0,0,1,0-1.868l.842-.842a2.249,2.249,0,0,0,0-3.182l-3.367-3.367a2.253,2.253,0,0,0-3.182,0l-.842.842h0c-1.205,1.206-1.607,3.775-1.049,6.706Zm2.548-5.207c.884-.863.836-.88.934-.88a.13.13,0,0,1,.092.038c3.547,3.566,3.4,3.357,3.4,3.459a.128.128,0,0,1-.038.092l-.842.842a3.439,3.439,0,0,0-.009,4.857l3.36,3.5.015.015a3.615,3.615,0,0,0,5.007,0l.842-.842a.131.131,0,0,1,.184,0c3.547,3.566,3.4,3.357,3.4,3.459a.127.127,0,0,1-.038.092l-.842.842c-.577.577-2.414.922-4.81.466a13.861,13.861,0,0,1-11.131-11.131c-.457-2.4-.112-4.234.465-4.81Zm0,0" transform="translate(-112.566 -86.116)"/></g></svg>